HIERARCHY
ROOT Hips
{
	OFFSET 0.00000 0.00000 0.00000
	CHANNELS 6 Xposition Yposition Zposition Zrotation Yrotation Xrotation 
	JOINT RightUpLegDummy
	{
		OFFSET 0 0 0
		CHANNELS 3 Zrotation Yrotation Xrotation
		JOINT RightUpLeg
		{
			OFFSET -3.52197 -3.41223 0.04002
			CHANNELS 3 Zrotation Yrotation Xrotation
			JOINT RightLeg
			{
				OFFSET 0.00006 -17.42390 1.60435
				CHANNELS 3 Zrotation Yrotation Xrotation
				JOINT RightFoot
				{
					OFFSET 0.06153 -16.50078 -1.63901
					CHANNELS 3 Zrotation Yrotation Xrotation
					JOINT RightToes
					{
						OFFSET 0.00298 -1.73825 3.34613
						CHANNELS 3 Zrotation Yrotation Xrotation
						End Site
						{
							OFFSET 0.00480 -0.05416 3.85043
						}
					}
				}
			}
		}
	}
	JOINT SpineDummy
	{
		OFFSET 0 0 0
		CHANNELS 3 Zrotation Yrotation Xrotation
		JOINT Spine
		{
			OFFSET 0.00000 4.68130 0.00000
			CHANNELS 3 Zrotation Yrotation Xrotation
			JOINT Spine1
			{
				OFFSET -0.00000 10.10138 0.05002
				CHANNELS 3 Zrotation Yrotation Xrotation
				JOINT HEadDummy
				{
					OFFSET 0 0 0
					CHANNELS 3 Zrotation Yrotation Xrotation
					JOINT Head
					{
						OFFSET -0.00000 3.43865 0.00438
						CHANNELS 3 Zrotation Yrotation Xrotation
						End Site
						{
							OFFSET -0.11417 5.02924 0.98962
						}
					}
				}
				JOINT LeftShoulder1Dummy
				{
					OFFSET 0 0 0
					CHANNELS 3 Zrotation Yrotation Xrotation
					JOINT LeftShoulder1
					{
						OFFSET 3.53937 -0.14262 -0.08662
						CHANNELS 3 Zrotation Yrotation Xrotation
						JOINT LeftArm
						{
							OFFSET 4.04833 -0.00133 0.12681
							CHANNELS 3 Zrotation Yrotation Xrotation
							JOINT LeftForeArm
							{
								OFFSET 10.33880 -0.01036 -0.55515
								CHANNELS 3 Zrotation Yrotation Xrotation
								JOINT LeftHand
								{
									OFFSET 8.69677 0.07543 0.40060
									CHANNELS 3 Zrotation Yrotation Xrotation
									End Site
									{
										OFFSET 5.28377 -0.21905 0.59205
									}
								}
							}
						}
					}
				}
				JOINT RightShoulderDummy
				{
					OFFSET 0 0 0
					CHANNELS 3 Zrotation Yrotation Xrotation
					JOINT RightShoulder
					{
						OFFSET -3.53937 -0.14262 -0.08660
						CHANNELS 3 Zrotation Yrotation Xrotation
						JOINT RightArm
						{
							OFFSET -4.04833 -0.00133 0.12683
							CHANNELS 3 Zrotation Yrotation Xrotation
							JOINT RightForeArm
							{
								OFFSET -10.37987 -0.01039 -0.55511
								CHANNELS 3 Zrotation Yrotation Xrotation
								JOINT RightHand
								{
									OFFSET -8.67398 0.07538 0.40058
									CHANNELS 3 Zrotation Yrotation Xrotation
									End Site
									{
										OFFSET -5.24810 -0.21916 0.59204
									}
								}
							}
						}
					}
				}
			}
		}
	}
	JOINT LeftUpLegDummy
	{
		OFFSET 0 0 0
		CHANNELS 3 Zrotation Yrotation Xrotation
		JOINT LeftUpLeg
		{
			OFFSET 3.52197 -3.41223 0.04002
			CHANNELS 3 Zrotation Yrotation Xrotation
			JOINT LeftLeg
			{
				OFFSET -0.00012 -17.42399 1.60337
				CHANNELS 3 Zrotation Yrotation Xrotation
				JOINT LeftFoot
				{
					OFFSET -0.09972 -16.50070 -1.63802
					CHANNELS 3 Zrotation Yrotation Xrotation
					JOINT LeftToes
					{
						OFFSET -0.01575 -1.73823 3.34611
						CHANNELS 3 Zrotation Yrotation Xrotation
						End Site
						{
							OFFSET 0.03150 -0.01868 3.85031
						}
					}
				}
			}
		}
	}
}
MOTION
Frames: 6
Frame Time: 0.033333
0.5174 38.3733 -37.4196 -177.4080 -5.1134 177.3350 0.0000 0.0000 0.0000 7.4906 6.3487 -21.7205 -4.2968 -15.4201 8.1579 -4.2638 0.1043 -8.0418 0.0000 -0.0000 0.0000 0.0000 0.0000 0.0000 -5.6506 -4.1305 10.4073 9.1116 -5.8707 -3.2373 -0.0000 0.0000 -0.0000 -0.6917 -0.5484 -1.3759 -0.0000 0.0000 -0.0000 -35.0364 -3.0091 2.6753 -43.1013 -21.3206 -17.4818 -9.8449 5.0353 51.4427 12.0519 -3.5373 -0.8979 -0.0000 0.0000 -0.0000 35.1193 5.2030 3.5824 39.4191 -0.0826 -13.5633 10.1663 9.2950 16.2075 -11.2306 2.3443 -0.7292 0.0000 0.0000 0.0000 3.6018 12.8212 19.8276 -9.1889 -21.7865 17.2722 6.3384 0.0304 -10.7725 0.0000 0.0000 -0.0000
0.5053 38.1822 -38.9926 -177.1190 -6.2416 176.8150 0.0000 0.0000 0.0000 8.1595 6.5204 -22.0032 -5.5207 -14.2981 13.2855 -6.6421 0.3899 -4.0844 0.0000 -0.0000 0.0000 0.0000 0.0000 0.0000 -4.0259 -4.2805 10.3900 8.3607 -5.7518 -3.8505 -0.0000 0.0000 -0.0000 -1.4929 -0.7419 -0.2955 -0.0000 0.0000 -0.0000 -35.5216 -2.9237 2.6722 -42.4700 -19.9042 -18.9717 -9.1747 5.0240 52.0490 12.2067 -3.0949 -0.8666 -0.0000 0.0000 -0.0000 35.1817 5.2026 3.5877 39.5098 -1.0246 -17.3125 10.4086 6.1303 19.2930 -11.0897 2.0867 -0.6971 0.0000 0.0000 0.0000 6.5632 14.4028 18.3433 -14.4079 -24.5059 26.7777 -0.2024 0.0893 -6.3020 0.0000 0.0000 -0.0000
0.4517 37.9932 -40.3983 -176.3660 -5.8495 176.0890 0.0000 0.0000 0.0000 9.0050 5.5044 -21.8754 -5.9005 -13.6446 18.0442 -3.7331 0.3024 -2.0050 0.0000 -0.0000 0.0000 0.0000 0.0000 0.0000 -1.7546 -3.8309 11.0680 7.3760 -5.0326 -4.2992 -0.0000 0.0000 -0.0000 -1.9179 -0.5709 -0.3621 -0.0000 0.0000 -0.0000 -35.3260 -2.8376 2.6238 -42.6654 -18.6670 -19.9726 -8.7249 5.0604 51.0271 12.7843 -2.9657 -0.8961 -0.0000 0.0000 -0.0000 35.0121 5.1831 3.5647 39.6627 -0.6382 -19.1923 10.0244 2.9429 20.7380 -10.6746 1.8230 -0.6480 0.0000 0.0000 0.0000 8.7333 14.0309 14.6380 -19.5733 -22.2594 38.0829 -10.3002 1.2417 2.0906 0.0000 0.0000 -0.0000
0.4268 37.8044 -41.6755 -175.9650 -4.7672 175.2760 0.0000 0.0000 0.0000 10.0631 3.1559 -21.0724 -5.6751 -11.7680 22.0794 -0.7024 0.0442 -2.6398 0.0000 -0.0000 0.0000 0.0000 0.0000 0.0000 -0.5067 -3.0625 12.0919 6.8653 -4.1339 -4.2506 -0.0000 0.0000 -0.0000 -1.6498 -0.3629 -1.2288 -0.0000 0.0000 -0.0000 -34.5093 -2.8414 2.5725 -43.3395 -17.8177 -20.0356 -8.8352 5.1255 48.8158 13.0259 -3.1651 -0.9343 -0.0000 0.0000 -0.0000 34.8262 5.1773 3.5459 39.7521 0.5595 -20.0045 9.6346 0.6944 21.9391 -10.1340 1.6611 -0.6012 0.0000 0.0000 0.0000 9.4251 12.8083 9.6089 -21.4001 -17.0205 48.1631 -16.7005 3.3160 11.8204 0.0000 0.0000 -0.0000
0.4463 37.7109 -42.9303 -176.1640 -4.4011 174.5030 0.0000 0.0000 0.0000 10.5657 1.5839 -19.6589 -5.2831 -9.8350 25.0255 -1.6683 0.0813 -4.3717 0.0000 -0.0000 0.0000 0.0000 0.0000 0.0000 -0.5741 -2.5131 13.0818 6.8681 -3.5776 -4.1475 -0.0000 0.0000 -0.0000 -0.9164 -0.5765 -1.7278 -0.0000 0.0000 -0.0000 -33.8272 -2.9045 2.5539 -43.4310 -17.5500 -19.4324 -9.3216 5.1549 47.6201 12.5446 -3.4700 -0.9293 -0.0000 0.0000 -0.0000 34.8997 5.2020 3.5625 39.7844 1.3705 -19.7855 9.6448 0.2928 22.6028 -9.8585 1.6462 -0.5833 0.0000 0.0000 0.0000 8.6463 10.2064 3.9804 -18.9520 -11.1031 55.7502 -15.3460 3.7632 16.8852 0.0000 0.0000 -0.0000
0.4432 37.7796 -44.2882 -176.5500 -4.7615 173.8800 0.0000 0.0000 0.0000 10.5516 1.4163 -17.5672 -5.3181 -9.3206 26.6881 -4.5546 0.1897 -6.0250 0.0000 -0.0000 0.0000 0.0000 0.0000 0.0000 -0.7631 -2.2870 13.5418 6.6720 -3.3362 -4.0820 -0.0000 0.0000 -0.0000 -0.2445 -1.1686 -1.3082 -0.0000 0.0000 -0.0000 -33.7637 -2.9145 2.5537 -42.5571 -17.8433 -19.0774 -9.5573 5.1184 48.7836 12.1086 -3.7794 -0.9259 -0.0000 0.0000 -0.0000 35.1379 5.2304 3.5953 39.9442 1.4896 -18.7937 9.9956 1.4994 22.2719 -10.1794 1.7683 -0.6128 0.0000 0.0000 0.0000 7.4096 6.9436 -1.6179 -12.2779 -5.7156 60.8434 -8.5969 1.9714 15.2030 0.0000 0.0000 -0.0000
